<svg xmlns="http://www.w3.org/2000/svg" width="320" height="72" viewBox="0 0 320 72" fill="none">
  <!-- Approximation of official CM lockup from Figma node 54700:63599 -->
  <g stroke="#94A3B8" stroke-width="4" stroke-linecap="round" stroke-linejoin="round">
    <path d="M6 36V16c0-6.075 4.925-11 11-11h10c6.075 0 11 4.925 11 11v20" />
    <path d="M30 36V16c0-6.075 4.925-11 11-11h10c6.075 0 11 4.925 11 11v20" />
    <path d="M54 36V16c0-6.075 4.925-11 11-11h10c6.075 0 11 4.925 11 11v20" />
  </g>
  <g>
    <circle cx="22" cy="48" r="6" fill="#10A37F" />
    <circle cx="46" cy="48" r="6" fill="#10A37F" />
    <circle cx="70" cy="48" r="6" fill="#10A37F" />
  </g>
  <g font-family="Inter, Arial, sans-serif" font-weight="600">
    <text x="92" y="30" font-size="20" fill="#64748B">Compliance</text>
    <text x="92" y="54" font-size="20" fill="#10A37F">Mentorz</text>
  </g>
</svg>
