<svg width="20" height="20" viewBox="0 0 20 20" fill="none" xmlns="http://www.w3.org/2000/svg">
<path d="M12.5 1.66663H5.00001C4.55798 1.66663 4.13406 1.84222 3.8215 2.15478C3.50894 2.46734 3.33334 2.89127 3.33334 3.33329V16.6666C3.33334 17.1087 3.50894 17.5326 3.8215 17.8451C4.13406 18.1577 4.55798 18.3333 5.00001 18.3333H15C15.442 18.3333 15.866 18.1577 16.1785 17.8451C16.4911 17.5326 16.6667 17.1087 16.6667 16.6666V5.83329L12.5 1.66663Z" stroke="#364153" stroke-width="1.66667" stroke-linecap="round" stroke-linejoin="round"/>
<path d="M11.6667 1.66663V4.99996C11.6667 5.44199 11.8423 5.86591 12.1548 6.17847C12.4674 6.49103 12.8913 6.66663 13.3333 6.66663H16.6667" stroke="#364153" stroke-width="1.66667" stroke-linecap="round" stroke-linejoin="round"/>
<path d="M8.33332 7.5H6.66666" stroke="#364153" stroke-width="1.66667" stroke-linecap="round" stroke-linejoin="round"/>
<path d="M13.3333 10.8334H6.66666" stroke="#364153" stroke-width="1.66667" stroke-linecap="round" stroke-linejoin="round"/>
<path d="M13.3333 14.1666H6.66666" stroke="#364153" stroke-width="1.66667" stroke-linecap="round" stroke-linejoin="round"/>
</svg>
