<svg width="20" height="20" viewBox="0 0 20 20" fill="none" xmlns="http://www.w3.org/2000/svg">
<path d="M11.6667 15V4.99998C11.6667 4.55795 11.4911 4.13403 11.1785 3.82147C10.8659 3.50891 10.442 3.33331 9.99999 3.33331H3.33332C2.8913 3.33331 2.46737 3.50891 2.15481 3.82147C1.84225 4.13403 1.66666 4.55795 1.66666 4.99998V14.1666C1.66666 14.3877 1.75445 14.5996 1.91073 14.7559C2.06701 14.9122 2.27898 15 2.49999 15H4.16666" stroke="#364153" stroke-width="1.66667" stroke-linecap="round" stroke-linejoin="round"/>
<path d="M12.5 15H7.5" stroke="#364153" stroke-width="1.66667" stroke-linecap="round" stroke-linejoin="round"/>
<path d="M15.8333 15H17.5C17.721 15 17.933 14.9122 18.0892 14.7559C18.2455 14.5997 18.3333 14.3877 18.3333 14.1667V11.125C18.333 10.9359 18.2683 10.7525 18.15 10.605L15.25 6.98002C15.1721 6.88242 15.0732 6.80359 14.9607 6.74935C14.8482 6.69512 14.7249 6.66687 14.6 6.66669H11.6667" stroke="#364153" stroke-width="1.66667" stroke-linecap="round" stroke-linejoin="round"/>
<path d="M14.1667 16.6666C15.0871 16.6666 15.8333 15.9205 15.8333 15C15.8333 14.0795 15.0871 13.3333 14.1667 13.3333C13.2462 13.3333 12.5 14.0795 12.5 15C12.5 15.9205 13.2462 16.6666 14.1667 16.6666Z" stroke="#364153" stroke-width="1.66667" stroke-linecap="round" stroke-linejoin="round"/>
<path d="M5.83332 16.6666C6.7538 16.6666 7.49999 15.9205 7.49999 15C7.49999 14.0795 6.7538 13.3333 5.83332 13.3333C4.91285 13.3333 4.16666 14.0795 4.16666 15C4.16666 15.9205 4.91285 16.6666 5.83332 16.6666Z" stroke="#364153" stroke-width="1.66667" stroke-linecap="round" stroke-linejoin="round"/>
</svg>
