<svg width="20" height="20" viewBox="0 0 20 20" fill="none" xmlns="http://www.w3.org/2000/svg">
<path d="M10 14.168H10.0083" stroke="#364153" stroke-width="1.66667" stroke-linecap="round" stroke-linejoin="round"/>
<path d="M12.5 1.66797H4.99998C4.55795 1.66797 4.13403 1.84356 3.82147 2.15612C3.50891 2.46868 3.33331 2.89261 3.33331 3.33464V16.668C3.33331 17.11 3.50891 17.5339 3.82147 17.8465C4.13403 18.159 4.55795 18.3346 4.99998 18.3346H15C15.442 18.3346 15.8659 18.159 16.1785 17.8465C16.4911 17.5339 16.6666 17.11 16.6666 16.668V5.83464L12.5 1.66797Z" stroke="#364153" stroke-width="1.66667" stroke-linecap="round" stroke-linejoin="round"/>
<path d="M7.58331 7.49884C7.7833 6.9477 8.17062 6.48437 8.67759 6.18986C9.18455 5.89535 9.7789 5.78839 10.3567 5.88767C10.9346 5.98696 11.4591 6.28617 11.8387 6.73301C12.2183 7.17985 12.4288 7.74589 12.4333 8.33217C12.4333 9.99884 9.93331 10.8322 9.93331 10.8322" stroke="#364153" stroke-width="1.66667" stroke-linecap="round" stroke-linejoin="round"/>
</svg>
